<mxfile modified="2023-11-11T09:36:36.249Z" host="Electron" agent="Mozilla/5.0 (X11; Linux x86_64) AppleWebKit/537.36 (KHTML, like Gecko) draw.io/22.0.3 Chrome/114.0.5735.289 Electron/25.8.4 Safari/537.36" etag="3zfXS4nvdcCDFY1Vmyim" version="22.0.3" type="device">
  <diagram id="l8hXMBHkgcEJcSW0mbfh" name="Page-1">
    <mxGraphModel dx="3199" dy="1155" grid="1" gridSize="10" guides="1" tooltips="1" connect="1" arrows="1" fold="1" page="1" pageScale="1" pageWidth="1169" pageHeight="827" math="0" shadow="0">
      <root>
        <mxCell id="0" />
        <mxCell id="1" parent="0" />
        <mxCell id="x6HI5zbLbNdfw1Rwxbpw-19" value="" style="group" parent="1" vertex="1" connectable="0">
          <mxGeometry x="85" y="87" width="50" height="40" as="geometry" />
        </mxCell>
        <mxCell id="x6HI5zbLbNdfw1Rwxbpw-10" value="" style="ellipse;whiteSpace=wrap;html=1;aspect=fixed;strokeWidth=2;fillStyle=auto;fillColor=#FFFFFF;strokeColor=#000000;" parent="x6HI5zbLbNdfw1Rwxbpw-19" vertex="1">
          <mxGeometry y="15" width="10" height="10" as="geometry" />
        </mxCell>
        <mxCell id="x6HI5zbLbNdfw1Rwxbpw-11" value="" style="ellipse;whiteSpace=wrap;html=1;aspect=fixed;strokeWidth=2;" parent="x6HI5zbLbNdfw1Rwxbpw-19" vertex="1">
          <mxGeometry x="20" width="10" height="10" as="geometry" />
        </mxCell>
        <mxCell id="x6HI5zbLbNdfw1Rwxbpw-12" value="" style="ellipse;whiteSpace=wrap;html=1;aspect=fixed;strokeWidth=2;" parent="x6HI5zbLbNdfw1Rwxbpw-19" vertex="1">
          <mxGeometry x="20" y="30" width="10" height="10" as="geometry" />
        </mxCell>
        <mxCell id="x6HI5zbLbNdfw1Rwxbpw-13" value="" style="ellipse;whiteSpace=wrap;html=1;aspect=fixed;strokeWidth=2;fillColor=#FFFFFF;fillStyle=auto;" parent="x6HI5zbLbNdfw1Rwxbpw-19" vertex="1">
          <mxGeometry x="40" y="15" width="10" height="10" as="geometry" />
        </mxCell>
        <mxCell id="x6HI5zbLbNdfw1Rwxbpw-14" value="" style="endArrow=none;html=1;rounded=0;exitX=1;exitY=0.5;exitDx=0;exitDy=0;entryX=0;entryY=0.5;entryDx=0;entryDy=0;strokeWidth=1;dashed=1;" parent="x6HI5zbLbNdfw1Rwxbpw-19" source="x6HI5zbLbNdfw1Rwxbpw-10" target="x6HI5zbLbNdfw1Rwxbpw-13" edge="1">
          <mxGeometry width="50" height="50" relative="1" as="geometry">
            <mxPoint x="60" y="35" as="sourcePoint" />
            <mxPoint x="66.25" y="28.75" as="targetPoint" />
          </mxGeometry>
        </mxCell>
        <mxCell id="x6HI5zbLbNdfw1Rwxbpw-15" value="" style="endArrow=none;html=1;rounded=0;exitX=1;exitY=0;exitDx=0;exitDy=0;entryX=0;entryY=0.5;entryDx=0;entryDy=0;strokeWidth=1;" parent="x6HI5zbLbNdfw1Rwxbpw-19" source="x6HI5zbLbNdfw1Rwxbpw-10" target="x6HI5zbLbNdfw1Rwxbpw-11" edge="1">
          <mxGeometry width="50" height="50" relative="1" as="geometry">
            <mxPoint x="60" y="35" as="sourcePoint" />
            <mxPoint x="66.25" y="28.75" as="targetPoint" />
          </mxGeometry>
        </mxCell>
        <mxCell id="x6HI5zbLbNdfw1Rwxbpw-16" value="" style="endArrow=none;html=1;rounded=0;exitX=1;exitY=0.5;exitDx=0;exitDy=0;entryX=0;entryY=0;entryDx=0;entryDy=0;strokeWidth=1;" parent="x6HI5zbLbNdfw1Rwxbpw-19" source="x6HI5zbLbNdfw1Rwxbpw-11" target="x6HI5zbLbNdfw1Rwxbpw-13" edge="1">
          <mxGeometry width="50" height="50" relative="1" as="geometry">
            <mxPoint x="60" y="35" as="sourcePoint" />
            <mxPoint x="66.25" y="28.75" as="targetPoint" />
          </mxGeometry>
        </mxCell>
        <mxCell id="x6HI5zbLbNdfw1Rwxbpw-17" value="" style="endArrow=none;html=1;rounded=0;exitX=1;exitY=1;exitDx=0;exitDy=0;entryX=0;entryY=0.5;entryDx=0;entryDy=0;strokeWidth=1;" parent="x6HI5zbLbNdfw1Rwxbpw-19" source="x6HI5zbLbNdfw1Rwxbpw-10" target="x6HI5zbLbNdfw1Rwxbpw-12" edge="1">
          <mxGeometry width="50" height="50" relative="1" as="geometry">
            <mxPoint x="60" y="35" as="sourcePoint" />
            <mxPoint x="66.25" y="28.75" as="targetPoint" />
          </mxGeometry>
        </mxCell>
        <mxCell id="x6HI5zbLbNdfw1Rwxbpw-18" value="" style="endArrow=none;html=1;rounded=0;exitX=1;exitY=0.5;exitDx=0;exitDy=0;entryX=0;entryY=1;entryDx=0;entryDy=0;strokeWidth=1;" parent="x6HI5zbLbNdfw1Rwxbpw-19" source="x6HI5zbLbNdfw1Rwxbpw-12" target="x6HI5zbLbNdfw1Rwxbpw-13" edge="1">
          <mxGeometry width="50" height="50" relative="1" as="geometry">
            <mxPoint x="60" y="35" as="sourcePoint" />
            <mxPoint x="66.25" y="28.75" as="targetPoint" />
          </mxGeometry>
        </mxCell>
        <mxCell id="x6HI5zbLbNdfw1Rwxbpw-32" value="Functional Verification" style="swimlane;whiteSpace=wrap;html=1;strokeWidth=2;" parent="1" vertex="1">
          <mxGeometry y="160" width="480" height="200" as="geometry">
            <mxRectangle x="150" y="160" width="170" height="30" as="alternateBounds" />
          </mxGeometry>
        </mxCell>
        <mxCell id="x6HI5zbLbNdfw1Rwxbpw-33" value="Path Calculation" style="swimlane;whiteSpace=wrap;html=1;" parent="x6HI5zbLbNdfw1Rwxbpw-32" vertex="1">
          <mxGeometry x="10" y="40" width="200" height="130" as="geometry">
            <mxRectangle x="140" y="470" width="140" height="30" as="alternateBounds" />
          </mxGeometry>
        </mxCell>
        <mxCell id="x6HI5zbLbNdfw1Rwxbpw-38" value="" style="group" parent="x6HI5zbLbNdfw1Rwxbpw-33" vertex="1" connectable="0">
          <mxGeometry x="43.75" y="30" width="112.5" height="90" as="geometry" />
        </mxCell>
        <mxCell id="x6HI5zbLbNdfw1Rwxbpw-39" value="" style="ellipse;whiteSpace=wrap;html=1;aspect=fixed;strokeWidth=2;fillStyle=solid;fillColor=#FFCCCC;strokeColor=#000000;" parent="x6HI5zbLbNdfw1Rwxbpw-38" vertex="1">
          <mxGeometry y="33.75" width="22.5" height="22.5" as="geometry" />
        </mxCell>
        <mxCell id="x6HI5zbLbNdfw1Rwxbpw-40" value="" style="ellipse;whiteSpace=wrap;html=1;aspect=fixed;strokeWidth=2;" parent="x6HI5zbLbNdfw1Rwxbpw-38" vertex="1">
          <mxGeometry x="45" width="22.5" height="22.5" as="geometry" />
        </mxCell>
        <mxCell id="x6HI5zbLbNdfw1Rwxbpw-41" value="" style="ellipse;whiteSpace=wrap;html=1;aspect=fixed;strokeWidth=2;" parent="x6HI5zbLbNdfw1Rwxbpw-38" vertex="1">
          <mxGeometry x="45" y="67.5" width="22.5" height="22.5" as="geometry" />
        </mxCell>
        <mxCell id="x6HI5zbLbNdfw1Rwxbpw-42" value="" style="ellipse;whiteSpace=wrap;html=1;aspect=fixed;strokeWidth=2;fillColor=#E6FFCC;fillStyle=auto;" parent="x6HI5zbLbNdfw1Rwxbpw-38" vertex="1">
          <mxGeometry x="90" y="33.75" width="22.5" height="22.5" as="geometry" />
        </mxCell>
        <mxCell id="x6HI5zbLbNdfw1Rwxbpw-43" value="" style="endArrow=none;html=1;rounded=0;exitX=1;exitY=0.5;exitDx=0;exitDy=0;entryX=0;entryY=0.5;entryDx=0;entryDy=0;strokeWidth=1;dashed=1;" parent="x6HI5zbLbNdfw1Rwxbpw-38" source="x6HI5zbLbNdfw1Rwxbpw-39" target="x6HI5zbLbNdfw1Rwxbpw-42" edge="1">
          <mxGeometry width="50" height="50" relative="1" as="geometry">
            <mxPoint x="135" y="78.75" as="sourcePoint" />
            <mxPoint x="149.0625" y="64.6875" as="targetPoint" />
          </mxGeometry>
        </mxCell>
        <mxCell id="x6HI5zbLbNdfw1Rwxbpw-44" value="" style="endArrow=none;html=1;rounded=0;exitX=1;exitY=0;exitDx=0;exitDy=0;entryX=0;entryY=0.5;entryDx=0;entryDy=0;strokeWidth=1;" parent="x6HI5zbLbNdfw1Rwxbpw-38" source="x6HI5zbLbNdfw1Rwxbpw-39" target="x6HI5zbLbNdfw1Rwxbpw-40" edge="1">
          <mxGeometry width="50" height="50" relative="1" as="geometry">
            <mxPoint x="135" y="78.75" as="sourcePoint" />
            <mxPoint x="149.0625" y="64.6875" as="targetPoint" />
          </mxGeometry>
        </mxCell>
        <mxCell id="x6HI5zbLbNdfw1Rwxbpw-45" value="" style="endArrow=none;html=1;rounded=0;exitX=1;exitY=0.5;exitDx=0;exitDy=0;entryX=0;entryY=0;entryDx=0;entryDy=0;strokeWidth=1;" parent="x6HI5zbLbNdfw1Rwxbpw-38" source="x6HI5zbLbNdfw1Rwxbpw-40" target="x6HI5zbLbNdfw1Rwxbpw-42" edge="1">
          <mxGeometry width="50" height="50" relative="1" as="geometry">
            <mxPoint x="135" y="78.75" as="sourcePoint" />
            <mxPoint x="149.0625" y="64.6875" as="targetPoint" />
          </mxGeometry>
        </mxCell>
        <mxCell id="x6HI5zbLbNdfw1Rwxbpw-46" value="" style="endArrow=none;html=1;rounded=0;exitX=1;exitY=1;exitDx=0;exitDy=0;entryX=0;entryY=0.5;entryDx=0;entryDy=0;strokeWidth=1;" parent="x6HI5zbLbNdfw1Rwxbpw-38" source="x6HI5zbLbNdfw1Rwxbpw-39" target="x6HI5zbLbNdfw1Rwxbpw-41" edge="1">
          <mxGeometry width="50" height="50" relative="1" as="geometry">
            <mxPoint x="135" y="78.75" as="sourcePoint" />
            <mxPoint x="149.0625" y="64.6875" as="targetPoint" />
          </mxGeometry>
        </mxCell>
        <mxCell id="x6HI5zbLbNdfw1Rwxbpw-47" value="" style="endArrow=none;html=1;rounded=0;exitX=1;exitY=0.5;exitDx=0;exitDy=0;entryX=0;entryY=1;entryDx=0;entryDy=0;strokeWidth=1;" parent="x6HI5zbLbNdfw1Rwxbpw-38" source="x6HI5zbLbNdfw1Rwxbpw-41" target="x6HI5zbLbNdfw1Rwxbpw-42" edge="1">
          <mxGeometry width="50" height="50" relative="1" as="geometry">
            <mxPoint x="135" y="78.75" as="sourcePoint" />
            <mxPoint x="149.0625" y="64.6875" as="targetPoint" />
          </mxGeometry>
        </mxCell>
        <mxCell id="x6HI5zbLbNdfw1Rwxbpw-34" value="Functional Probability" style="swimlane;whiteSpace=wrap;html=1;" parent="x6HI5zbLbNdfw1Rwxbpw-32" vertex="1">
          <mxGeometry x="270" y="40" width="200" height="130" as="geometry">
            <mxRectangle x="140" y="470" width="140" height="30" as="alternateBounds" />
          </mxGeometry>
        </mxCell>
        <mxCell id="5Eh8UVj9TiFVpib5mEns-4" value="" style="group" parent="x6HI5zbLbNdfw1Rwxbpw-34" vertex="1" connectable="0">
          <mxGeometry x="10" y="45" width="75" height="60" as="geometry" />
        </mxCell>
        <mxCell id="5Eh8UVj9TiFVpib5mEns-5" value="" style="ellipse;whiteSpace=wrap;html=1;aspect=fixed;strokeWidth=2;fillStyle=auto;fillColor=#FFFFFF;strokeColor=#000000;" parent="5Eh8UVj9TiFVpib5mEns-4" vertex="1">
          <mxGeometry y="22.5" width="15" height="15" as="geometry" />
        </mxCell>
        <mxCell id="5Eh8UVj9TiFVpib5mEns-6" value="" style="ellipse;whiteSpace=wrap;html=1;aspect=fixed;strokeWidth=2;" parent="5Eh8UVj9TiFVpib5mEns-4" vertex="1">
          <mxGeometry x="30" width="15" height="15" as="geometry" />
        </mxCell>
        <mxCell id="5Eh8UVj9TiFVpib5mEns-7" value="" style="ellipse;whiteSpace=wrap;html=1;aspect=fixed;strokeWidth=2;" parent="5Eh8UVj9TiFVpib5mEns-4" vertex="1">
          <mxGeometry x="30" y="45" width="15" height="15" as="geometry" />
        </mxCell>
        <mxCell id="5Eh8UVj9TiFVpib5mEns-8" value="" style="ellipse;whiteSpace=wrap;html=1;aspect=fixed;strokeWidth=2;fillColor=#FFFFFF;fillStyle=auto;" parent="5Eh8UVj9TiFVpib5mEns-4" vertex="1">
          <mxGeometry x="60" y="22.5" width="15" height="15" as="geometry" />
        </mxCell>
        <mxCell id="5Eh8UVj9TiFVpib5mEns-9" value="" style="endArrow=none;html=1;rounded=0;exitX=1;exitY=0.5;exitDx=0;exitDy=0;entryX=0;entryY=0.5;entryDx=0;entryDy=0;strokeWidth=1;dashed=1;" parent="5Eh8UVj9TiFVpib5mEns-4" source="5Eh8UVj9TiFVpib5mEns-5" target="5Eh8UVj9TiFVpib5mEns-8" edge="1">
          <mxGeometry width="50" height="50" relative="1" as="geometry">
            <mxPoint x="90" y="52.5" as="sourcePoint" />
            <mxPoint x="99.375" y="43.125" as="targetPoint" />
          </mxGeometry>
        </mxCell>
        <mxCell id="5Eh8UVj9TiFVpib5mEns-10" value="" style="endArrow=none;html=1;rounded=0;exitX=1;exitY=0;exitDx=0;exitDy=0;entryX=0;entryY=0.5;entryDx=0;entryDy=0;strokeWidth=3;" parent="5Eh8UVj9TiFVpib5mEns-4" source="5Eh8UVj9TiFVpib5mEns-5" target="5Eh8UVj9TiFVpib5mEns-6" edge="1">
          <mxGeometry width="50" height="50" relative="1" as="geometry">
            <mxPoint x="90" y="52.5" as="sourcePoint" />
            <mxPoint x="99.375" y="43.125" as="targetPoint" />
          </mxGeometry>
        </mxCell>
        <mxCell id="5Eh8UVj9TiFVpib5mEns-11" value="" style="endArrow=none;html=1;rounded=0;exitX=1;exitY=0.5;exitDx=0;exitDy=0;entryX=0;entryY=0;entryDx=0;entryDy=0;strokeWidth=3;" parent="5Eh8UVj9TiFVpib5mEns-4" source="5Eh8UVj9TiFVpib5mEns-6" target="5Eh8UVj9TiFVpib5mEns-8" edge="1">
          <mxGeometry width="50" height="50" relative="1" as="geometry">
            <mxPoint x="90" y="52.5" as="sourcePoint" />
            <mxPoint x="99.375" y="43.125" as="targetPoint" />
          </mxGeometry>
        </mxCell>
        <mxCell id="5Eh8UVj9TiFVpib5mEns-12" value="" style="endArrow=none;html=1;rounded=0;exitX=1;exitY=1;exitDx=0;exitDy=0;entryX=0;entryY=0.5;entryDx=0;entryDy=0;strokeWidth=3;" parent="5Eh8UVj9TiFVpib5mEns-4" source="5Eh8UVj9TiFVpib5mEns-5" target="5Eh8UVj9TiFVpib5mEns-7" edge="1">
          <mxGeometry width="50" height="50" relative="1" as="geometry">
            <mxPoint x="90" y="52.5" as="sourcePoint" />
            <mxPoint x="99.375" y="43.125" as="targetPoint" />
          </mxGeometry>
        </mxCell>
        <mxCell id="5Eh8UVj9TiFVpib5mEns-13" value="" style="endArrow=none;html=1;rounded=0;exitX=1;exitY=0.5;exitDx=0;exitDy=0;entryX=0;entryY=1;entryDx=0;entryDy=0;strokeWidth=3;" parent="5Eh8UVj9TiFVpib5mEns-4" source="5Eh8UVj9TiFVpib5mEns-7" target="5Eh8UVj9TiFVpib5mEns-8" edge="1">
          <mxGeometry width="50" height="50" relative="1" as="geometry">
            <mxPoint x="90" y="52.5" as="sourcePoint" />
            <mxPoint x="99.375" y="43.125" as="targetPoint" />
          </mxGeometry>
        </mxCell>
        <mxCell id="5Eh8UVj9TiFVpib5mEns-14" value="0.9&lt;sup&gt;4&lt;/sup&gt;&amp;nbsp;x 0.1" style="text;html=1;strokeColor=none;fillColor=none;align=center;verticalAlign=middle;whiteSpace=wrap;rounded=0;" parent="x6HI5zbLbNdfw1Rwxbpw-34" vertex="1">
          <mxGeometry x="130" y="60" width="60" height="30" as="geometry" />
        </mxCell>
        <mxCell id="x6HI5zbLbNdfw1Rwxbpw-48" value="" style="endArrow=classic;html=1;rounded=0;exitX=1;exitY=0.5;exitDx=0;exitDy=0;entryX=0;entryY=0.5;entryDx=0;entryDy=0;" parent="x6HI5zbLbNdfw1Rwxbpw-32" source="x6HI5zbLbNdfw1Rwxbpw-33" target="x6HI5zbLbNdfw1Rwxbpw-34" edge="1">
          <mxGeometry width="50" height="50" relative="1" as="geometry">
            <mxPoint x="640" y="310" as="sourcePoint" />
            <mxPoint x="690" y="260" as="targetPoint" />
          </mxGeometry>
        </mxCell>
        <mxCell id="x6HI5zbLbNdfw1Rwxbpw-20" value="" style="group" parent="x6HI5zbLbNdfw1Rwxbpw-32" vertex="1" connectable="0">
          <mxGeometry x="215" y="30" width="50" height="40" as="geometry" />
        </mxCell>
        <mxCell id="x6HI5zbLbNdfw1Rwxbpw-21" value="" style="ellipse;whiteSpace=wrap;html=1;aspect=fixed;strokeWidth=2;fillStyle=auto;fillColor=#FFFFFF;strokeColor=#000000;" parent="x6HI5zbLbNdfw1Rwxbpw-20" vertex="1">
          <mxGeometry y="15" width="10" height="10" as="geometry" />
        </mxCell>
        <mxCell id="x6HI5zbLbNdfw1Rwxbpw-22" value="" style="ellipse;whiteSpace=wrap;html=1;aspect=fixed;strokeWidth=2;" parent="x6HI5zbLbNdfw1Rwxbpw-20" vertex="1">
          <mxGeometry x="20" width="10" height="10" as="geometry" />
        </mxCell>
        <mxCell id="x6HI5zbLbNdfw1Rwxbpw-23" value="" style="ellipse;whiteSpace=wrap;html=1;aspect=fixed;strokeWidth=2;" parent="x6HI5zbLbNdfw1Rwxbpw-20" vertex="1">
          <mxGeometry x="20" y="30" width="10" height="10" as="geometry" />
        </mxCell>
        <mxCell id="x6HI5zbLbNdfw1Rwxbpw-24" value="" style="ellipse;whiteSpace=wrap;html=1;aspect=fixed;strokeWidth=2;fillColor=#FFFFFF;fillStyle=auto;" parent="x6HI5zbLbNdfw1Rwxbpw-20" vertex="1">
          <mxGeometry x="40" y="15" width="10" height="10" as="geometry" />
        </mxCell>
        <mxCell id="x6HI5zbLbNdfw1Rwxbpw-25" value="" style="endArrow=none;html=1;rounded=0;exitX=1;exitY=0.5;exitDx=0;exitDy=0;entryX=0;entryY=0.5;entryDx=0;entryDy=0;strokeWidth=1;dashed=1;" parent="x6HI5zbLbNdfw1Rwxbpw-20" source="x6HI5zbLbNdfw1Rwxbpw-21" target="x6HI5zbLbNdfw1Rwxbpw-24" edge="1">
          <mxGeometry width="50" height="50" relative="1" as="geometry">
            <mxPoint x="60" y="35" as="sourcePoint" />
            <mxPoint x="66.25" y="28.75" as="targetPoint" />
          </mxGeometry>
        </mxCell>
        <mxCell id="x6HI5zbLbNdfw1Rwxbpw-26" value="" style="endArrow=none;html=1;rounded=0;exitX=1;exitY=0;exitDx=0;exitDy=0;entryX=0;entryY=0.5;entryDx=0;entryDy=0;strokeWidth=3;" parent="x6HI5zbLbNdfw1Rwxbpw-20" source="x6HI5zbLbNdfw1Rwxbpw-21" target="x6HI5zbLbNdfw1Rwxbpw-22" edge="1">
          <mxGeometry width="50" height="50" relative="1" as="geometry">
            <mxPoint x="60" y="35" as="sourcePoint" />
            <mxPoint x="66.25" y="28.75" as="targetPoint" />
          </mxGeometry>
        </mxCell>
        <mxCell id="x6HI5zbLbNdfw1Rwxbpw-27" value="" style="endArrow=none;html=1;rounded=0;exitX=1;exitY=0.5;exitDx=0;exitDy=0;entryX=0;entryY=0;entryDx=0;entryDy=0;strokeWidth=3;" parent="x6HI5zbLbNdfw1Rwxbpw-20" source="x6HI5zbLbNdfw1Rwxbpw-22" target="x6HI5zbLbNdfw1Rwxbpw-24" edge="1">
          <mxGeometry width="50" height="50" relative="1" as="geometry">
            <mxPoint x="60" y="35" as="sourcePoint" />
            <mxPoint x="66.25" y="28.75" as="targetPoint" />
          </mxGeometry>
        </mxCell>
        <mxCell id="x6HI5zbLbNdfw1Rwxbpw-28" value="" style="endArrow=none;html=1;rounded=0;exitX=1;exitY=1;exitDx=0;exitDy=0;entryX=0;entryY=0.5;entryDx=0;entryDy=0;strokeWidth=3;" parent="x6HI5zbLbNdfw1Rwxbpw-20" source="x6HI5zbLbNdfw1Rwxbpw-21" target="x6HI5zbLbNdfw1Rwxbpw-23" edge="1">
          <mxGeometry width="50" height="50" relative="1" as="geometry">
            <mxPoint x="60" y="35" as="sourcePoint" />
            <mxPoint x="66.25" y="28.75" as="targetPoint" />
          </mxGeometry>
        </mxCell>
        <mxCell id="x6HI5zbLbNdfw1Rwxbpw-29" value="" style="endArrow=none;html=1;rounded=0;exitX=1;exitY=0.5;exitDx=0;exitDy=0;entryX=0;entryY=1;entryDx=0;entryDy=0;strokeWidth=3;" parent="x6HI5zbLbNdfw1Rwxbpw-20" source="x6HI5zbLbNdfw1Rwxbpw-23" target="x6HI5zbLbNdfw1Rwxbpw-24" edge="1">
          <mxGeometry width="50" height="50" relative="1" as="geometry">
            <mxPoint x="60" y="35" as="sourcePoint" />
            <mxPoint x="66.25" y="28.75" as="targetPoint" />
          </mxGeometry>
        </mxCell>
        <mxCell id="5Eh8UVj9TiFVpib5mEns-1" value="Hot&amp;nbsp;&lt;br&gt;Edges" style="text;html=1;strokeColor=none;fillColor=none;align=center;verticalAlign=middle;whiteSpace=wrap;rounded=0;" parent="x6HI5zbLbNdfw1Rwxbpw-32" vertex="1">
          <mxGeometry x="210" y="73" width="60" height="30" as="geometry" />
        </mxCell>
        <mxCell id="x6HI5zbLbNdfw1Rwxbpw-35" value="Temporal Verification" style="swimlane;whiteSpace=wrap;html=1;strokeWidth=2;" parent="1" vertex="1">
          <mxGeometry x="560" y="160" width="480" height="200" as="geometry">
            <mxRectangle x="150" y="160" width="170" height="30" as="alternateBounds" />
          </mxGeometry>
        </mxCell>
        <mxCell id="x6HI5zbLbNdfw1Rwxbpw-36" value="Single Path Temporal Probability" style="swimlane;whiteSpace=wrap;html=1;" parent="x6HI5zbLbNdfw1Rwxbpw-35" vertex="1">
          <mxGeometry x="10" y="40" width="200" height="130" as="geometry">
            <mxRectangle x="140" y="470" width="140" height="30" as="alternateBounds" />
          </mxGeometry>
        </mxCell>
        <mxCell id="5Eh8UVj9TiFVpib5mEns-58" value="" style="group" parent="x6HI5zbLbNdfw1Rwxbpw-36" vertex="1" connectable="0">
          <mxGeometry x="20" y="30" width="80" height="40" as="geometry" />
        </mxCell>
        <mxCell id="5Eh8UVj9TiFVpib5mEns-39" value="" style="ellipse;whiteSpace=wrap;html=1;aspect=fixed;strokeWidth=2;fillStyle=auto;fillColor=#FFFFFF;strokeColor=#000000;" parent="5Eh8UVj9TiFVpib5mEns-58" vertex="1">
          <mxGeometry y="24" width="16" height="16" as="geometry" />
        </mxCell>
        <mxCell id="5Eh8UVj9TiFVpib5mEns-40" value="" style="ellipse;whiteSpace=wrap;html=1;aspect=fixed;strokeWidth=2;" parent="5Eh8UVj9TiFVpib5mEns-58" vertex="1">
          <mxGeometry x="32" width="16" height="16" as="geometry" />
        </mxCell>
        <mxCell id="5Eh8UVj9TiFVpib5mEns-42" value="" style="ellipse;whiteSpace=wrap;html=1;aspect=fixed;strokeWidth=2;fillColor=#FFFFFF;fillStyle=auto;" parent="5Eh8UVj9TiFVpib5mEns-58" vertex="1">
          <mxGeometry x="64" y="24" width="16" height="16" as="geometry" />
        </mxCell>
        <mxCell id="5Eh8UVj9TiFVpib5mEns-43" value="" style="endArrow=none;html=1;rounded=0;exitX=1;exitY=0;exitDx=0;exitDy=0;entryX=0;entryY=0.5;entryDx=0;entryDy=0;strokeWidth=3;fillColor=#dae8fc;strokeColor=#6c8ebf;" parent="5Eh8UVj9TiFVpib5mEns-58" source="5Eh8UVj9TiFVpib5mEns-39" target="5Eh8UVj9TiFVpib5mEns-40" edge="1">
          <mxGeometry width="50" height="50" relative="1" as="geometry">
            <mxPoint x="96" y="56" as="sourcePoint" />
            <mxPoint x="106" y="46" as="targetPoint" />
          </mxGeometry>
        </mxCell>
        <mxCell id="5Eh8UVj9TiFVpib5mEns-44" value="" style="endArrow=none;html=1;rounded=0;exitX=1;exitY=0.5;exitDx=0;exitDy=0;entryX=0;entryY=0;entryDx=0;entryDy=0;strokeWidth=3;fillColor=#dae8fc;strokeColor=#6c8ebf;" parent="5Eh8UVj9TiFVpib5mEns-58" source="5Eh8UVj9TiFVpib5mEns-40" target="5Eh8UVj9TiFVpib5mEns-42" edge="1">
          <mxGeometry width="50" height="50" relative="1" as="geometry">
            <mxPoint x="96" y="56" as="sourcePoint" />
            <mxPoint x="106" y="46" as="targetPoint" />
          </mxGeometry>
        </mxCell>
        <mxCell id="5Eh8UVj9TiFVpib5mEns-59" value="" style="group" parent="x6HI5zbLbNdfw1Rwxbpw-36" vertex="1" connectable="0">
          <mxGeometry x="20" y="80" width="80" height="40" as="geometry" />
        </mxCell>
        <mxCell id="5Eh8UVj9TiFVpib5mEns-48" value="" style="ellipse;whiteSpace=wrap;html=1;aspect=fixed;strokeWidth=2;fillStyle=auto;fillColor=#FFFFFF;strokeColor=#000000;" parent="5Eh8UVj9TiFVpib5mEns-59" vertex="1">
          <mxGeometry width="16" height="16" as="geometry" />
        </mxCell>
        <mxCell id="5Eh8UVj9TiFVpib5mEns-50" value="" style="ellipse;whiteSpace=wrap;html=1;aspect=fixed;strokeWidth=2;" parent="5Eh8UVj9TiFVpib5mEns-59" vertex="1">
          <mxGeometry x="32" y="24" width="16" height="16" as="geometry" />
        </mxCell>
        <mxCell id="5Eh8UVj9TiFVpib5mEns-51" value="" style="ellipse;whiteSpace=wrap;html=1;aspect=fixed;strokeWidth=2;fillColor=#FFFFFF;fillStyle=auto;" parent="5Eh8UVj9TiFVpib5mEns-59" vertex="1">
          <mxGeometry x="64" width="16" height="16" as="geometry" />
        </mxCell>
        <mxCell id="5Eh8UVj9TiFVpib5mEns-54" value="" style="endArrow=none;html=1;rounded=0;exitX=1;exitY=1;exitDx=0;exitDy=0;entryX=0;entryY=0.5;entryDx=0;entryDy=0;strokeWidth=3;fillColor=#ffe6cc;strokeColor=#d79b00;" parent="5Eh8UVj9TiFVpib5mEns-59" source="5Eh8UVj9TiFVpib5mEns-48" target="5Eh8UVj9TiFVpib5mEns-50" edge="1">
          <mxGeometry width="50" height="50" relative="1" as="geometry">
            <mxPoint x="96" y="32" as="sourcePoint" />
            <mxPoint x="106" y="22" as="targetPoint" />
          </mxGeometry>
        </mxCell>
        <mxCell id="5Eh8UVj9TiFVpib5mEns-55" value="" style="endArrow=none;html=1;rounded=0;exitX=1;exitY=0.5;exitDx=0;exitDy=0;entryX=0;entryY=1;entryDx=0;entryDy=0;strokeWidth=3;fillColor=#ffe6cc;strokeColor=#d79b00;" parent="5Eh8UVj9TiFVpib5mEns-59" source="5Eh8UVj9TiFVpib5mEns-50" target="5Eh8UVj9TiFVpib5mEns-51" edge="1">
          <mxGeometry width="50" height="50" relative="1" as="geometry">
            <mxPoint x="96" y="32" as="sourcePoint" />
            <mxPoint x="106" y="22" as="targetPoint" />
          </mxGeometry>
        </mxCell>
        <mxCell id="5Eh8UVj9TiFVpib5mEns-61" value="0.95" style="text;html=1;strokeColor=none;fillColor=none;align=center;verticalAlign=middle;whiteSpace=wrap;rounded=0;" parent="x6HI5zbLbNdfw1Rwxbpw-36" vertex="1">
          <mxGeometry x="150" y="85" width="40" height="30" as="geometry" />
        </mxCell>
        <mxCell id="5Eh8UVj9TiFVpib5mEns-60" value="0.95" style="text;html=1;strokeColor=none;fillColor=none;align=center;verticalAlign=middle;whiteSpace=wrap;rounded=0;" parent="x6HI5zbLbNdfw1Rwxbpw-36" vertex="1">
          <mxGeometry x="150" y="35" width="40" height="30" as="geometry" />
        </mxCell>
        <mxCell id="x6HI5zbLbNdfw1Rwxbpw-37" value="Equiv. Classes Temporal Prob." style="swimlane;whiteSpace=wrap;html=1;" parent="x6HI5zbLbNdfw1Rwxbpw-35" vertex="1">
          <mxGeometry x="270" y="40" width="200" height="130" as="geometry">
            <mxRectangle x="140" y="470" width="140" height="30" as="alternateBounds" />
          </mxGeometry>
        </mxCell>
        <mxCell id="5Eh8UVj9TiFVpib5mEns-72" value="" style="group" parent="x6HI5zbLbNdfw1Rwxbpw-37" vertex="1" connectable="0">
          <mxGeometry x="10" y="41.25" width="84.38" height="67.5" as="geometry" />
        </mxCell>
        <mxCell id="5Eh8UVj9TiFVpib5mEns-73" value="" style="ellipse;whiteSpace=wrap;html=1;aspect=fixed;strokeWidth=2;fillStyle=auto;fillColor=#FFFFFF;strokeColor=#000000;" parent="5Eh8UVj9TiFVpib5mEns-72" vertex="1">
          <mxGeometry y="25.3125" width="16.875" height="16.875" as="geometry" />
        </mxCell>
        <mxCell id="5Eh8UVj9TiFVpib5mEns-74" value="" style="ellipse;whiteSpace=wrap;html=1;aspect=fixed;strokeWidth=2;" parent="5Eh8UVj9TiFVpib5mEns-72" vertex="1">
          <mxGeometry x="33.752" width="16.875" height="16.875" as="geometry" />
        </mxCell>
        <mxCell id="5Eh8UVj9TiFVpib5mEns-75" value="" style="ellipse;whiteSpace=wrap;html=1;aspect=fixed;strokeWidth=2;" parent="5Eh8UVj9TiFVpib5mEns-72" vertex="1">
          <mxGeometry x="33.752" y="50.625" width="16.875" height="16.875" as="geometry" />
        </mxCell>
        <mxCell id="5Eh8UVj9TiFVpib5mEns-76" value="" style="ellipse;whiteSpace=wrap;html=1;aspect=fixed;strokeWidth=2;fillColor=#FFFFFF;fillStyle=auto;" parent="5Eh8UVj9TiFVpib5mEns-72" vertex="1">
          <mxGeometry x="67.504" y="25.3125" width="16.875" height="16.875" as="geometry" />
        </mxCell>
        <mxCell id="5Eh8UVj9TiFVpib5mEns-77" value="" style="endArrow=none;html=1;rounded=0;exitX=1;exitY=0;exitDx=0;exitDy=0;entryX=0;entryY=0.5;entryDx=0;entryDy=0;strokeWidth=3;fillColor=#dae8fc;strokeColor=#6c8ebf;" parent="5Eh8UVj9TiFVpib5mEns-72" source="5Eh8UVj9TiFVpib5mEns-73" target="5Eh8UVj9TiFVpib5mEns-74" edge="1">
          <mxGeometry width="50" height="50" relative="1" as="geometry">
            <mxPoint x="101.256" y="59.0625" as="sourcePoint" />
            <mxPoint x="111.8035" y="48.515625" as="targetPoint" />
          </mxGeometry>
        </mxCell>
        <mxCell id="5Eh8UVj9TiFVpib5mEns-78" value="" style="endArrow=none;html=1;rounded=0;exitX=1;exitY=0.5;exitDx=0;exitDy=0;entryX=0;entryY=0;entryDx=0;entryDy=0;strokeWidth=3;fillColor=#dae8fc;strokeColor=#6c8ebf;" parent="5Eh8UVj9TiFVpib5mEns-72" source="5Eh8UVj9TiFVpib5mEns-74" target="5Eh8UVj9TiFVpib5mEns-76" edge="1">
          <mxGeometry width="50" height="50" relative="1" as="geometry">
            <mxPoint x="101.256" y="59.0625" as="sourcePoint" />
            <mxPoint x="111.8035" y="48.515625" as="targetPoint" />
          </mxGeometry>
        </mxCell>
        <mxCell id="5Eh8UVj9TiFVpib5mEns-79" value="" style="endArrow=none;html=1;rounded=0;exitX=1;exitY=1;exitDx=0;exitDy=0;entryX=0;entryY=0.5;entryDx=0;entryDy=0;strokeWidth=3;fillColor=#ffe6cc;strokeColor=#d79b00;" parent="5Eh8UVj9TiFVpib5mEns-72" source="5Eh8UVj9TiFVpib5mEns-73" target="5Eh8UVj9TiFVpib5mEns-75" edge="1">
          <mxGeometry width="50" height="50" relative="1" as="geometry">
            <mxPoint x="101.256" y="59.0625" as="sourcePoint" />
            <mxPoint x="111.8035" y="48.515625" as="targetPoint" />
          </mxGeometry>
        </mxCell>
        <mxCell id="5Eh8UVj9TiFVpib5mEns-80" value="" style="endArrow=none;html=1;rounded=0;exitX=1;exitY=0.5;exitDx=0;exitDy=0;entryX=0;entryY=1;entryDx=0;entryDy=0;strokeWidth=3;fillColor=#ffe6cc;strokeColor=#d79b00;" parent="5Eh8UVj9TiFVpib5mEns-72" source="5Eh8UVj9TiFVpib5mEns-75" target="5Eh8UVj9TiFVpib5mEns-76" edge="1">
          <mxGeometry width="50" height="50" relative="1" as="geometry">
            <mxPoint x="101.256" y="59.0625" as="sourcePoint" />
            <mxPoint x="111.8035" y="48.515625" as="targetPoint" />
          </mxGeometry>
        </mxCell>
        <mxCell id="5Eh8UVj9TiFVpib5mEns-81" value="0.5 x 0.95" style="text;html=1;strokeColor=none;fillColor=none;align=center;verticalAlign=middle;whiteSpace=wrap;rounded=0;" parent="x6HI5zbLbNdfw1Rwxbpw-37" vertex="1">
          <mxGeometry x="130" y="36.56" width="70" height="30" as="geometry" />
        </mxCell>
        <mxCell id="5Eh8UVj9TiFVpib5mEns-82" value="0.5 x 0.95" style="text;html=1;strokeColor=none;fillColor=none;align=center;verticalAlign=middle;whiteSpace=wrap;rounded=0;" parent="x6HI5zbLbNdfw1Rwxbpw-37" vertex="1">
          <mxGeometry x="130" y="78.75" width="70" height="30" as="geometry" />
        </mxCell>
        <mxCell id="5Eh8UVj9TiFVpib5mEns-83" value="+" style="text;html=1;strokeColor=none;fillColor=none;align=center;verticalAlign=middle;whiteSpace=wrap;rounded=0;" parent="x6HI5zbLbNdfw1Rwxbpw-37" vertex="1">
          <mxGeometry x="135" y="57" width="60" height="30" as="geometry" />
        </mxCell>
        <mxCell id="5Eh8UVj9TiFVpib5mEns-126" value="" style="endArrow=classic;html=1;rounded=0;entryX=0;entryY=0.5;entryDx=0;entryDy=0;" parent="x6HI5zbLbNdfw1Rwxbpw-37" edge="1">
          <mxGeometry width="50" height="50" relative="1" as="geometry">
            <mxPoint x="100" y="51.06" as="sourcePoint" />
            <mxPoint x="130" y="51.06" as="targetPoint" />
          </mxGeometry>
        </mxCell>
        <mxCell id="5Eh8UVj9TiFVpib5mEns-130" value="" style="endArrow=classic;html=1;rounded=0;entryX=0;entryY=0.5;entryDx=0;entryDy=0;" parent="x6HI5zbLbNdfw1Rwxbpw-37" edge="1">
          <mxGeometry width="50" height="50" relative="1" as="geometry">
            <mxPoint x="100" y="93.25" as="sourcePoint" />
            <mxPoint x="130" y="93.25" as="targetPoint" />
          </mxGeometry>
        </mxCell>
        <mxCell id="5Eh8UVj9TiFVpib5mEns-71" value="" style="endArrow=classic;html=1;rounded=0;exitX=1;exitY=0.5;exitDx=0;exitDy=0;entryX=0;entryY=0.5;entryDx=0;entryDy=0;" parent="x6HI5zbLbNdfw1Rwxbpw-35" source="x6HI5zbLbNdfw1Rwxbpw-36" target="x6HI5zbLbNdfw1Rwxbpw-37" edge="1">
          <mxGeometry width="50" height="50" relative="1" as="geometry">
            <mxPoint y="480" as="sourcePoint" />
            <mxPoint x="50" y="430" as="targetPoint" />
          </mxGeometry>
        </mxCell>
        <mxCell id="5Eh8UVj9TiFVpib5mEns-123" value="Paths w/&lt;br&gt;Probability" style="text;html=1;strokeColor=none;fillColor=none;align=center;verticalAlign=middle;whiteSpace=wrap;rounded=0;" parent="x6HI5zbLbNdfw1Rwxbpw-35" vertex="1">
          <mxGeometry x="210" y="110" width="60" height="30" as="geometry" />
        </mxCell>
        <mxCell id="5Eh8UVj9TiFVpib5mEns-25" value="" style="endArrow=classic;html=1;rounded=0;" parent="1" edge="1">
          <mxGeometry width="50" height="50" relative="1" as="geometry">
            <mxPoint x="370" y="275" as="sourcePoint" />
            <mxPoint x="390" y="275" as="targetPoint" />
          </mxGeometry>
        </mxCell>
        <mxCell id="5Eh8UVj9TiFVpib5mEns-26" value="" style="group" parent="1" vertex="1" connectable="0">
          <mxGeometry x="495" y="215" width="50" height="40" as="geometry" />
        </mxCell>
        <mxCell id="5Eh8UVj9TiFVpib5mEns-27" value="" style="ellipse;whiteSpace=wrap;html=1;aspect=fixed;strokeWidth=2;fillStyle=auto;fillColor=#FFFFFF;strokeColor=#000000;" parent="5Eh8UVj9TiFVpib5mEns-26" vertex="1">
          <mxGeometry y="15" width="10" height="10" as="geometry" />
        </mxCell>
        <mxCell id="5Eh8UVj9TiFVpib5mEns-28" value="" style="ellipse;whiteSpace=wrap;html=1;aspect=fixed;strokeWidth=2;" parent="5Eh8UVj9TiFVpib5mEns-26" vertex="1">
          <mxGeometry x="20" width="10" height="10" as="geometry" />
        </mxCell>
        <mxCell id="5Eh8UVj9TiFVpib5mEns-29" value="" style="ellipse;whiteSpace=wrap;html=1;aspect=fixed;strokeWidth=2;" parent="5Eh8UVj9TiFVpib5mEns-26" vertex="1">
          <mxGeometry x="20" y="30" width="10" height="10" as="geometry" />
        </mxCell>
        <mxCell id="5Eh8UVj9TiFVpib5mEns-30" value="" style="ellipse;whiteSpace=wrap;html=1;aspect=fixed;strokeWidth=2;fillColor=#FFFFFF;fillStyle=auto;" parent="5Eh8UVj9TiFVpib5mEns-26" vertex="1">
          <mxGeometry x="40" y="15" width="10" height="10" as="geometry" />
        </mxCell>
        <mxCell id="5Eh8UVj9TiFVpib5mEns-32" value="" style="endArrow=none;html=1;rounded=0;exitX=1;exitY=0;exitDx=0;exitDy=0;entryX=0;entryY=0.5;entryDx=0;entryDy=0;strokeWidth=3;fillColor=#dae8fc;strokeColor=#6c8ebf;" parent="5Eh8UVj9TiFVpib5mEns-26" source="5Eh8UVj9TiFVpib5mEns-27" target="5Eh8UVj9TiFVpib5mEns-28" edge="1">
          <mxGeometry width="50" height="50" relative="1" as="geometry">
            <mxPoint x="60" y="35" as="sourcePoint" />
            <mxPoint x="66.25" y="28.75" as="targetPoint" />
          </mxGeometry>
        </mxCell>
        <mxCell id="5Eh8UVj9TiFVpib5mEns-33" value="" style="endArrow=none;html=1;rounded=0;exitX=1;exitY=0.5;exitDx=0;exitDy=0;entryX=0;entryY=0;entryDx=0;entryDy=0;strokeWidth=3;fillColor=#dae8fc;strokeColor=#6c8ebf;" parent="5Eh8UVj9TiFVpib5mEns-26" source="5Eh8UVj9TiFVpib5mEns-28" target="5Eh8UVj9TiFVpib5mEns-30" edge="1">
          <mxGeometry width="50" height="50" relative="1" as="geometry">
            <mxPoint x="60" y="35" as="sourcePoint" />
            <mxPoint x="66.25" y="28.75" as="targetPoint" />
          </mxGeometry>
        </mxCell>
        <mxCell id="5Eh8UVj9TiFVpib5mEns-34" value="" style="endArrow=none;html=1;rounded=0;exitX=1;exitY=1;exitDx=0;exitDy=0;entryX=0;entryY=0.5;entryDx=0;entryDy=0;strokeWidth=3;fillColor=#ffe6cc;strokeColor=#d79b00;" parent="5Eh8UVj9TiFVpib5mEns-26" source="5Eh8UVj9TiFVpib5mEns-27" target="5Eh8UVj9TiFVpib5mEns-29" edge="1">
          <mxGeometry width="50" height="50" relative="1" as="geometry">
            <mxPoint x="60" y="35" as="sourcePoint" />
            <mxPoint x="66.25" y="28.75" as="targetPoint" />
          </mxGeometry>
        </mxCell>
        <mxCell id="5Eh8UVj9TiFVpib5mEns-35" value="" style="endArrow=none;html=1;rounded=0;exitX=1;exitY=0.5;exitDx=0;exitDy=0;entryX=0;entryY=1;entryDx=0;entryDy=0;strokeWidth=3;fillColor=#ffe6cc;strokeColor=#d79b00;" parent="5Eh8UVj9TiFVpib5mEns-26" source="5Eh8UVj9TiFVpib5mEns-29" target="5Eh8UVj9TiFVpib5mEns-30" edge="1">
          <mxGeometry width="50" height="50" relative="1" as="geometry">
            <mxPoint x="60" y="35" as="sourcePoint" />
            <mxPoint x="66.25" y="28.75" as="targetPoint" />
          </mxGeometry>
        </mxCell>
        <mxCell id="5Eh8UVj9TiFVpib5mEns-36" value="" style="endArrow=classic;html=1;rounded=0;exitX=1;exitY=0.5;exitDx=0;exitDy=0;entryX=0;entryY=0.5;entryDx=0;entryDy=0;" parent="1" source="x6HI5zbLbNdfw1Rwxbpw-34" target="x6HI5zbLbNdfw1Rwxbpw-36" edge="1">
          <mxGeometry width="50" height="50" relative="1" as="geometry">
            <mxPoint x="560" y="640" as="sourcePoint" />
            <mxPoint x="610" y="590" as="targetPoint" />
          </mxGeometry>
        </mxCell>
        <mxCell id="5Eh8UVj9TiFVpib5mEns-37" value="Paths" style="text;html=1;strokeColor=none;fillColor=none;align=center;verticalAlign=middle;whiteSpace=wrap;rounded=0;" parent="1" vertex="1">
          <mxGeometry x="490" y="270" width="60" height="30" as="geometry" />
        </mxCell>
        <mxCell id="5Eh8UVj9TiFVpib5mEns-84" value="0.0623" style="text;html=1;strokeColor=none;fillColor=none;align=center;verticalAlign=middle;whiteSpace=wrap;rounded=0;" parent="1" vertex="1">
          <mxGeometry x="1070" y="250" width="60" height="30" as="geometry" />
        </mxCell>
        <mxCell id="5Eh8UVj9TiFVpib5mEns-85" value="" style="endArrow=classic;html=1;rounded=0;exitX=1;exitY=0.5;exitDx=0;exitDy=0;entryX=0;entryY=0.5;entryDx=0;entryDy=0;" parent="1" source="x6HI5zbLbNdfw1Rwxbpw-37" edge="1" target="5Eh8UVj9TiFVpib5mEns-84">
          <mxGeometry width="50" height="50" relative="1" as="geometry">
            <mxPoint x="1060" y="290" as="sourcePoint" />
            <mxPoint x="1070" y="265" as="targetPoint" />
          </mxGeometry>
        </mxCell>
        <mxCell id="5Eh8UVj9TiFVpib5mEns-86" value="" style="endArrow=classic;html=1;rounded=0;exitX=0.5;exitY=1;exitDx=0;exitDy=0;entryX=0.5;entryY=1;entryDx=0;entryDy=0;" parent="1" source="x6HI5zbLbNdfw1Rwxbpw-34" target="5Eh8UVj9TiFVpib5mEns-84" edge="1">
          <mxGeometry width="50" height="50" relative="1" as="geometry">
            <mxPoint x="560" y="640" as="sourcePoint" />
            <mxPoint x="610" y="590" as="targetPoint" />
            <Array as="points">
              <mxPoint x="370" y="390" />
              <mxPoint x="1100" y="390" />
            </Array>
          </mxGeometry>
        </mxCell>
        <mxCell id="5Eh8UVj9TiFVpib5mEns-90" value="" style="group" parent="1" vertex="1" connectable="0">
          <mxGeometry x="770" y="191" width="60" height="69" as="geometry" />
        </mxCell>
        <mxCell id="5Eh8UVj9TiFVpib5mEns-88" value="&lt;font style=&quot;font-size: 10px;&quot;&gt;0.95&lt;/font&gt;" style="text;html=1;strokeColor=none;fillColor=none;align=center;verticalAlign=middle;whiteSpace=wrap;rounded=0;" parent="5Eh8UVj9TiFVpib5mEns-90" vertex="1">
          <mxGeometry width="60" height="10" as="geometry" />
        </mxCell>
        <mxCell id="5Eh8UVj9TiFVpib5mEns-89" value="&lt;font style=&quot;font-size: 10px;&quot;&gt;0.95&lt;/font&gt;" style="text;html=1;strokeColor=none;fillColor=none;align=center;verticalAlign=middle;whiteSpace=wrap;rounded=0;" parent="5Eh8UVj9TiFVpib5mEns-90" vertex="1">
          <mxGeometry y="59" width="60" height="10" as="geometry" />
        </mxCell>
        <mxCell id="5Eh8UVj9TiFVpib5mEns-63" value="" style="ellipse;whiteSpace=wrap;html=1;aspect=fixed;strokeWidth=2;fillStyle=auto;fillColor=#FFFFFF;strokeColor=#000000;" parent="5Eh8UVj9TiFVpib5mEns-90" vertex="1">
          <mxGeometry x="5" y="30" width="10" height="10" as="geometry" />
        </mxCell>
        <mxCell id="5Eh8UVj9TiFVpib5mEns-64" value="" style="ellipse;whiteSpace=wrap;html=1;aspect=fixed;strokeWidth=2;" parent="5Eh8UVj9TiFVpib5mEns-90" vertex="1">
          <mxGeometry x="25" y="15" width="10" height="10" as="geometry" />
        </mxCell>
        <mxCell id="5Eh8UVj9TiFVpib5mEns-65" value="" style="ellipse;whiteSpace=wrap;html=1;aspect=fixed;strokeWidth=2;" parent="5Eh8UVj9TiFVpib5mEns-90" vertex="1">
          <mxGeometry x="25" y="45" width="10" height="10" as="geometry" />
        </mxCell>
        <mxCell id="5Eh8UVj9TiFVpib5mEns-66" value="" style="ellipse;whiteSpace=wrap;html=1;aspect=fixed;strokeWidth=2;fillColor=#FFFFFF;fillStyle=auto;" parent="5Eh8UVj9TiFVpib5mEns-90" vertex="1">
          <mxGeometry x="45" y="30" width="10" height="10" as="geometry" />
        </mxCell>
        <mxCell id="5Eh8UVj9TiFVpib5mEns-67" value="" style="endArrow=none;html=1;rounded=0;exitX=1;exitY=0;exitDx=0;exitDy=0;entryX=0;entryY=0.5;entryDx=0;entryDy=0;strokeWidth=3;fillColor=#dae8fc;strokeColor=#6c8ebf;" parent="5Eh8UVj9TiFVpib5mEns-90" source="5Eh8UVj9TiFVpib5mEns-63" target="5Eh8UVj9TiFVpib5mEns-64" edge="1">
          <mxGeometry width="50" height="50" relative="1" as="geometry">
            <mxPoint x="65" y="50" as="sourcePoint" />
            <mxPoint x="71.25" y="43.75" as="targetPoint" />
          </mxGeometry>
        </mxCell>
        <mxCell id="5Eh8UVj9TiFVpib5mEns-68" value="" style="endArrow=none;html=1;rounded=0;exitX=1;exitY=0.5;exitDx=0;exitDy=0;entryX=0;entryY=0;entryDx=0;entryDy=0;strokeWidth=3;fillColor=#dae8fc;strokeColor=#6c8ebf;" parent="5Eh8UVj9TiFVpib5mEns-90" source="5Eh8UVj9TiFVpib5mEns-64" target="5Eh8UVj9TiFVpib5mEns-66" edge="1">
          <mxGeometry width="50" height="50" relative="1" as="geometry">
            <mxPoint x="65" y="50" as="sourcePoint" />
            <mxPoint x="71.25" y="43.75" as="targetPoint" />
          </mxGeometry>
        </mxCell>
        <mxCell id="5Eh8UVj9TiFVpib5mEns-69" value="" style="endArrow=none;html=1;rounded=0;exitX=1;exitY=1;exitDx=0;exitDy=0;entryX=0;entryY=0.5;entryDx=0;entryDy=0;strokeWidth=3;fillColor=#ffe6cc;strokeColor=#d79b00;" parent="5Eh8UVj9TiFVpib5mEns-90" source="5Eh8UVj9TiFVpib5mEns-63" target="5Eh8UVj9TiFVpib5mEns-65" edge="1">
          <mxGeometry width="50" height="50" relative="1" as="geometry">
            <mxPoint x="65" y="50" as="sourcePoint" />
            <mxPoint x="71.25" y="43.75" as="targetPoint" />
          </mxGeometry>
        </mxCell>
        <mxCell id="5Eh8UVj9TiFVpib5mEns-70" value="" style="endArrow=none;html=1;rounded=0;exitX=1;exitY=0.5;exitDx=0;exitDy=0;entryX=0;entryY=1;entryDx=0;entryDy=0;strokeWidth=3;fillColor=#ffe6cc;strokeColor=#d79b00;" parent="5Eh8UVj9TiFVpib5mEns-90" source="5Eh8UVj9TiFVpib5mEns-65" target="5Eh8UVj9TiFVpib5mEns-66" edge="1">
          <mxGeometry width="50" height="50" relative="1" as="geometry">
            <mxPoint x="65" y="50" as="sourcePoint" />
            <mxPoint x="71.25" y="43.75" as="targetPoint" />
          </mxGeometry>
        </mxCell>
        <mxCell id="5Eh8UVj9TiFVpib5mEns-91" value="" style="group" parent="1" vertex="1" connectable="0">
          <mxGeometry x="130" y="414" width="50" height="40" as="geometry" />
        </mxCell>
        <mxCell id="5Eh8UVj9TiFVpib5mEns-92" value="" style="ellipse;whiteSpace=wrap;html=1;aspect=fixed;strokeWidth=2;fillStyle=auto;fillColor=#FFFFFF;strokeColor=#000000;" parent="5Eh8UVj9TiFVpib5mEns-91" vertex="1">
          <mxGeometry y="15" width="10" height="10" as="geometry" />
        </mxCell>
        <mxCell id="5Eh8UVj9TiFVpib5mEns-93" value="" style="ellipse;whiteSpace=wrap;html=1;aspect=fixed;strokeWidth=2;" parent="5Eh8UVj9TiFVpib5mEns-91" vertex="1">
          <mxGeometry x="20" width="10" height="10" as="geometry" />
        </mxCell>
        <mxCell id="5Eh8UVj9TiFVpib5mEns-94" value="" style="ellipse;whiteSpace=wrap;html=1;aspect=fixed;strokeWidth=2;" parent="5Eh8UVj9TiFVpib5mEns-91" vertex="1">
          <mxGeometry x="20" y="30" width="10" height="10" as="geometry" />
        </mxCell>
        <mxCell id="5Eh8UVj9TiFVpib5mEns-95" value="" style="ellipse;whiteSpace=wrap;html=1;aspect=fixed;strokeWidth=2;fillColor=#FFFFFF;fillStyle=auto;" parent="5Eh8UVj9TiFVpib5mEns-91" vertex="1">
          <mxGeometry x="40" y="15" width="10" height="10" as="geometry" />
        </mxCell>
        <mxCell id="5Eh8UVj9TiFVpib5mEns-96" value="" style="endArrow=none;html=1;rounded=0;exitX=1;exitY=0.5;exitDx=0;exitDy=0;entryX=0;entryY=0.5;entryDx=0;entryDy=0;strokeWidth=1;dashed=1;" parent="5Eh8UVj9TiFVpib5mEns-91" source="5Eh8UVj9TiFVpib5mEns-92" target="5Eh8UVj9TiFVpib5mEns-95" edge="1">
          <mxGeometry width="50" height="50" relative="1" as="geometry">
            <mxPoint x="60" y="35" as="sourcePoint" />
            <mxPoint x="66.25" y="28.75" as="targetPoint" />
          </mxGeometry>
        </mxCell>
        <mxCell id="5Eh8UVj9TiFVpib5mEns-97" value="" style="endArrow=none;html=1;rounded=0;exitX=1;exitY=0;exitDx=0;exitDy=0;entryX=0;entryY=0.5;entryDx=0;entryDy=0;strokeWidth=1;dashed=1;" parent="5Eh8UVj9TiFVpib5mEns-91" source="5Eh8UVj9TiFVpib5mEns-92" target="5Eh8UVj9TiFVpib5mEns-93" edge="1">
          <mxGeometry width="50" height="50" relative="1" as="geometry">
            <mxPoint x="60" y="35" as="sourcePoint" />
            <mxPoint x="66.25" y="28.75" as="targetPoint" />
          </mxGeometry>
        </mxCell>
        <mxCell id="5Eh8UVj9TiFVpib5mEns-98" value="" style="endArrow=none;html=1;rounded=0;exitX=1;exitY=0.5;exitDx=0;exitDy=0;entryX=0;entryY=0;entryDx=0;entryDy=0;strokeWidth=1;" parent="5Eh8UVj9TiFVpib5mEns-91" source="5Eh8UVj9TiFVpib5mEns-93" target="5Eh8UVj9TiFVpib5mEns-95" edge="1">
          <mxGeometry width="50" height="50" relative="1" as="geometry">
            <mxPoint x="60" y="35" as="sourcePoint" />
            <mxPoint x="66.25" y="28.75" as="targetPoint" />
          </mxGeometry>
        </mxCell>
        <mxCell id="5Eh8UVj9TiFVpib5mEns-99" value="" style="endArrow=none;html=1;rounded=0;exitX=1;exitY=1;exitDx=0;exitDy=0;entryX=0;entryY=0.5;entryDx=0;entryDy=0;strokeWidth=1;" parent="5Eh8UVj9TiFVpib5mEns-91" source="5Eh8UVj9TiFVpib5mEns-92" target="5Eh8UVj9TiFVpib5mEns-94" edge="1">
          <mxGeometry width="50" height="50" relative="1" as="geometry">
            <mxPoint x="60" y="35" as="sourcePoint" />
            <mxPoint x="66.25" y="28.75" as="targetPoint" />
          </mxGeometry>
        </mxCell>
        <mxCell id="5Eh8UVj9TiFVpib5mEns-100" value="" style="endArrow=none;html=1;rounded=0;exitX=1;exitY=0.5;exitDx=0;exitDy=0;entryX=0;entryY=1;entryDx=0;entryDy=0;strokeWidth=1;" parent="5Eh8UVj9TiFVpib5mEns-91" source="5Eh8UVj9TiFVpib5mEns-94" target="5Eh8UVj9TiFVpib5mEns-95" edge="1">
          <mxGeometry width="50" height="50" relative="1" as="geometry">
            <mxPoint x="60" y="35" as="sourcePoint" />
            <mxPoint x="66.25" y="28.75" as="targetPoint" />
          </mxGeometry>
        </mxCell>
        <mxCell id="5Eh8UVj9TiFVpib5mEns-102" value="" style="group" parent="1" vertex="1" connectable="0">
          <mxGeometry x="190" y="414" width="50" height="40" as="geometry" />
        </mxCell>
        <mxCell id="5Eh8UVj9TiFVpib5mEns-103" value="" style="ellipse;whiteSpace=wrap;html=1;aspect=fixed;strokeWidth=2;fillStyle=auto;fillColor=#FFFFFF;strokeColor=#000000;" parent="5Eh8UVj9TiFVpib5mEns-102" vertex="1">
          <mxGeometry y="15" width="10" height="10" as="geometry" />
        </mxCell>
        <mxCell id="5Eh8UVj9TiFVpib5mEns-104" value="" style="ellipse;whiteSpace=wrap;html=1;aspect=fixed;strokeWidth=2;" parent="5Eh8UVj9TiFVpib5mEns-102" vertex="1">
          <mxGeometry x="20" width="10" height="10" as="geometry" />
        </mxCell>
        <mxCell id="5Eh8UVj9TiFVpib5mEns-105" value="" style="ellipse;whiteSpace=wrap;html=1;aspect=fixed;strokeWidth=2;" parent="5Eh8UVj9TiFVpib5mEns-102" vertex="1">
          <mxGeometry x="20" y="30" width="10" height="10" as="geometry" />
        </mxCell>
        <mxCell id="5Eh8UVj9TiFVpib5mEns-106" value="" style="ellipse;whiteSpace=wrap;html=1;aspect=fixed;strokeWidth=2;fillColor=#FFFFFF;fillStyle=auto;" parent="5Eh8UVj9TiFVpib5mEns-102" vertex="1">
          <mxGeometry x="40" y="15" width="10" height="10" as="geometry" />
        </mxCell>
        <mxCell id="5Eh8UVj9TiFVpib5mEns-107" value="" style="endArrow=none;html=1;rounded=0;exitX=1;exitY=0.5;exitDx=0;exitDy=0;entryX=0;entryY=0.5;entryDx=0;entryDy=0;strokeWidth=1;dashed=1;" parent="5Eh8UVj9TiFVpib5mEns-102" source="5Eh8UVj9TiFVpib5mEns-103" target="5Eh8UVj9TiFVpib5mEns-106" edge="1">
          <mxGeometry width="50" height="50" relative="1" as="geometry">
            <mxPoint x="60" y="35" as="sourcePoint" />
            <mxPoint x="66.25" y="28.75" as="targetPoint" />
          </mxGeometry>
        </mxCell>
        <mxCell id="5Eh8UVj9TiFVpib5mEns-108" value="" style="endArrow=none;html=1;rounded=0;exitX=1;exitY=0;exitDx=0;exitDy=0;entryX=0;entryY=0.5;entryDx=0;entryDy=0;strokeWidth=3;" parent="5Eh8UVj9TiFVpib5mEns-102" source="5Eh8UVj9TiFVpib5mEns-103" target="5Eh8UVj9TiFVpib5mEns-104" edge="1">
          <mxGeometry width="50" height="50" relative="1" as="geometry">
            <mxPoint x="60" y="35" as="sourcePoint" />
            <mxPoint x="66.25" y="28.75" as="targetPoint" />
          </mxGeometry>
        </mxCell>
        <mxCell id="5Eh8UVj9TiFVpib5mEns-109" value="" style="endArrow=none;html=1;rounded=0;exitX=1;exitY=0.5;exitDx=0;exitDy=0;entryX=0;entryY=0;entryDx=0;entryDy=0;strokeWidth=1;dashed=1;" parent="5Eh8UVj9TiFVpib5mEns-102" source="5Eh8UVj9TiFVpib5mEns-104" target="5Eh8UVj9TiFVpib5mEns-106" edge="1">
          <mxGeometry width="50" height="50" relative="1" as="geometry">
            <mxPoint x="60" y="35" as="sourcePoint" />
            <mxPoint x="66.25" y="28.75" as="targetPoint" />
          </mxGeometry>
        </mxCell>
        <mxCell id="5Eh8UVj9TiFVpib5mEns-110" value="" style="endArrow=none;html=1;rounded=0;exitX=1;exitY=1;exitDx=0;exitDy=0;entryX=0;entryY=0.5;entryDx=0;entryDy=0;strokeWidth=1;" parent="5Eh8UVj9TiFVpib5mEns-102" source="5Eh8UVj9TiFVpib5mEns-103" target="5Eh8UVj9TiFVpib5mEns-105" edge="1">
          <mxGeometry width="50" height="50" relative="1" as="geometry">
            <mxPoint x="60" y="35" as="sourcePoint" />
            <mxPoint x="66.25" y="28.75" as="targetPoint" />
          </mxGeometry>
        </mxCell>
        <mxCell id="5Eh8UVj9TiFVpib5mEns-111" value="" style="endArrow=none;html=1;rounded=0;exitX=1;exitY=0.5;exitDx=0;exitDy=0;entryX=0;entryY=1;entryDx=0;entryDy=0;strokeWidth=1;" parent="5Eh8UVj9TiFVpib5mEns-102" source="5Eh8UVj9TiFVpib5mEns-105" target="5Eh8UVj9TiFVpib5mEns-106" edge="1">
          <mxGeometry width="50" height="50" relative="1" as="geometry">
            <mxPoint x="60" y="35" as="sourcePoint" />
            <mxPoint x="66.25" y="28.75" as="targetPoint" />
          </mxGeometry>
        </mxCell>
        <mxCell id="5Eh8UVj9TiFVpib5mEns-112" value="" style="group" parent="1" vertex="1" connectable="0">
          <mxGeometry x="250" y="414" width="50" height="40" as="geometry" />
        </mxCell>
        <mxCell id="5Eh8UVj9TiFVpib5mEns-113" value="" style="ellipse;whiteSpace=wrap;html=1;aspect=fixed;strokeWidth=2;fillStyle=auto;fillColor=#FFFFFF;strokeColor=#000000;" parent="5Eh8UVj9TiFVpib5mEns-112" vertex="1">
          <mxGeometry y="15" width="10" height="10" as="geometry" />
        </mxCell>
        <mxCell id="5Eh8UVj9TiFVpib5mEns-114" value="" style="ellipse;whiteSpace=wrap;html=1;aspect=fixed;strokeWidth=2;" parent="5Eh8UVj9TiFVpib5mEns-112" vertex="1">
          <mxGeometry x="20" width="10" height="10" as="geometry" />
        </mxCell>
        <mxCell id="5Eh8UVj9TiFVpib5mEns-115" value="" style="ellipse;whiteSpace=wrap;html=1;aspect=fixed;strokeWidth=2;" parent="5Eh8UVj9TiFVpib5mEns-112" vertex="1">
          <mxGeometry x="20" y="30" width="10" height="10" as="geometry" />
        </mxCell>
        <mxCell id="5Eh8UVj9TiFVpib5mEns-116" value="" style="ellipse;whiteSpace=wrap;html=1;aspect=fixed;strokeWidth=2;fillColor=#FFFFFF;fillStyle=auto;" parent="5Eh8UVj9TiFVpib5mEns-112" vertex="1">
          <mxGeometry x="40" y="15" width="10" height="10" as="geometry" />
        </mxCell>
        <mxCell id="5Eh8UVj9TiFVpib5mEns-117" value="" style="endArrow=none;html=1;rounded=0;exitX=1;exitY=0.5;exitDx=0;exitDy=0;entryX=0;entryY=0.5;entryDx=0;entryDy=0;strokeWidth=1;dashed=1;" parent="5Eh8UVj9TiFVpib5mEns-112" source="5Eh8UVj9TiFVpib5mEns-113" target="5Eh8UVj9TiFVpib5mEns-116" edge="1">
          <mxGeometry width="50" height="50" relative="1" as="geometry">
            <mxPoint x="60" y="35" as="sourcePoint" />
            <mxPoint x="66.25" y="28.75" as="targetPoint" />
          </mxGeometry>
        </mxCell>
        <mxCell id="5Eh8UVj9TiFVpib5mEns-118" value="" style="endArrow=none;html=1;rounded=0;exitX=1;exitY=0;exitDx=0;exitDy=0;entryX=0;entryY=0.5;entryDx=0;entryDy=0;strokeWidth=3;" parent="5Eh8UVj9TiFVpib5mEns-112" source="5Eh8UVj9TiFVpib5mEns-113" target="5Eh8UVj9TiFVpib5mEns-114" edge="1">
          <mxGeometry width="50" height="50" relative="1" as="geometry">
            <mxPoint x="60" y="35" as="sourcePoint" />
            <mxPoint x="66.25" y="28.75" as="targetPoint" />
          </mxGeometry>
        </mxCell>
        <mxCell id="5Eh8UVj9TiFVpib5mEns-119" value="" style="endArrow=none;html=1;rounded=0;exitX=1;exitY=0.5;exitDx=0;exitDy=0;entryX=0;entryY=0;entryDx=0;entryDy=0;strokeWidth=3;" parent="5Eh8UVj9TiFVpib5mEns-112" source="5Eh8UVj9TiFVpib5mEns-114" target="5Eh8UVj9TiFVpib5mEns-116" edge="1">
          <mxGeometry width="50" height="50" relative="1" as="geometry">
            <mxPoint x="60" y="35" as="sourcePoint" />
            <mxPoint x="66.25" y="28.75" as="targetPoint" />
          </mxGeometry>
        </mxCell>
        <mxCell id="5Eh8UVj9TiFVpib5mEns-120" value="" style="endArrow=none;html=1;rounded=0;exitX=1;exitY=1;exitDx=0;exitDy=0;entryX=0;entryY=0.5;entryDx=0;entryDy=0;strokeWidth=1;dashed=1;" parent="5Eh8UVj9TiFVpib5mEns-112" source="5Eh8UVj9TiFVpib5mEns-113" target="5Eh8UVj9TiFVpib5mEns-115" edge="1">
          <mxGeometry width="50" height="50" relative="1" as="geometry">
            <mxPoint x="60" y="35" as="sourcePoint" />
            <mxPoint x="66.25" y="28.75" as="targetPoint" />
          </mxGeometry>
        </mxCell>
        <mxCell id="5Eh8UVj9TiFVpib5mEns-121" value="" style="endArrow=none;html=1;rounded=0;exitX=1;exitY=0.5;exitDx=0;exitDy=0;entryX=0;entryY=1;entryDx=0;entryDy=0;strokeWidth=1;" parent="5Eh8UVj9TiFVpib5mEns-112" source="5Eh8UVj9TiFVpib5mEns-115" target="5Eh8UVj9TiFVpib5mEns-116" edge="1">
          <mxGeometry width="50" height="50" relative="1" as="geometry">
            <mxPoint x="60" y="35" as="sourcePoint" />
            <mxPoint x="66.25" y="28.75" as="targetPoint" />
          </mxGeometry>
        </mxCell>
        <mxCell id="5Eh8UVj9TiFVpib5mEns-124" value="" style="endArrow=classic;html=1;rounded=0;entryX=0;entryY=0.5;entryDx=0;entryDy=0;" parent="1" target="5Eh8UVj9TiFVpib5mEns-60" edge="1">
          <mxGeometry width="50" height="50" relative="1" as="geometry">
            <mxPoint x="690" y="250" as="sourcePoint" />
            <mxPoint x="610" y="590" as="targetPoint" />
          </mxGeometry>
        </mxCell>
        <mxCell id="5Eh8UVj9TiFVpib5mEns-125" value="" style="endArrow=classic;html=1;rounded=0;entryX=0;entryY=0.5;entryDx=0;entryDy=0;" parent="1" target="5Eh8UVj9TiFVpib5mEns-61" edge="1">
          <mxGeometry width="50" height="50" relative="1" as="geometry">
            <mxPoint x="690" y="300" as="sourcePoint" />
            <mxPoint x="610" y="590" as="targetPoint" />
          </mxGeometry>
        </mxCell>
        <mxCell id="B3PPdcBxg9_oXIISraDX-1" value="" style="endArrow=classic;html=1;rounded=0;entryX=0.5;entryY=0;entryDx=0;entryDy=0;" edge="1" parent="1" target="x6HI5zbLbNdfw1Rwxbpw-33">
          <mxGeometry width="50" height="50" relative="1" as="geometry">
            <mxPoint x="110" y="140" as="sourcePoint" />
            <mxPoint x="320" y="320" as="targetPoint" />
          </mxGeometry>
        </mxCell>
        <mxCell id="B3PPdcBxg9_oXIISraDX-2" value="" style="endArrow=classic;html=1;rounded=0;exitX=0.5;exitY=1.233;exitDx=0;exitDy=0;exitPerimeter=0;" edge="1" parent="1" source="5Eh8UVj9TiFVpib5mEns-1">
          <mxGeometry width="50" height="50" relative="1" as="geometry">
            <mxPoint x="240" y="290" as="sourcePoint" />
            <mxPoint x="240" y="410" as="targetPoint" />
          </mxGeometry>
        </mxCell>
        <mxCell id="B3PPdcBxg9_oXIISraDX-3" value="&lt;font style=&quot;font-size: 20px;&quot;&gt;...&lt;/font&gt;" style="text;html=1;strokeColor=none;fillColor=none;align=center;verticalAlign=middle;whiteSpace=wrap;rounded=0;" vertex="1" parent="1">
          <mxGeometry x="290" y="414" width="60" height="30" as="geometry" />
        </mxCell>
        <mxCell id="B3PPdcBxg9_oXIISraDX-4" value="Input: network state" style="text;html=1;strokeColor=none;fillColor=none;align=center;verticalAlign=middle;whiteSpace=wrap;rounded=0;" vertex="1" parent="1">
          <mxGeometry x="150" y="92" width="115" height="30" as="geometry" />
        </mxCell>
        <mxCell id="B3PPdcBxg9_oXIISraDX-5" value="... enqueue related network state exploration" style="text;html=1;strokeColor=none;fillColor=none;align=center;verticalAlign=middle;whiteSpace=wrap;rounded=0;" vertex="1" parent="1">
          <mxGeometry x="80" y="370" width="145" height="30" as="geometry" />
        </mxCell>
      </root>
    </mxGraphModel>
  </diagram>
</mxfile>
